<svg width="90" height="29" viewBox="0 0 90 29" fill="none" xmlns="http://www.w3.org/2000/svg">
<path d="M48.3395 10.4531H50.875C50.8253 7.99574 48.7301 6.25568 45.6335 6.25568C42.5795 6.25568 40.2855 7.97443 40.2926 10.5455C40.2926 12.6335 41.777 13.8338 44.1705 14.4517L45.8253 14.8778C47.3949 15.2756 48.4318 15.7656 48.4389 16.8949C48.4318 18.1378 47.2528 18.9688 45.5341 18.9688C43.8864 18.9688 42.608 18.2301 42.5014 16.7031H39.9091C40.0156 19.5938 42.1676 21.2202 45.5554 21.2202C49.0426 21.2202 51.0668 19.4801 51.0739 16.9162C51.0668 14.3949 48.9858 13.2443 46.7983 12.7259L45.4347 12.3849C44.2415 12.1009 42.9489 11.5966 42.9631 10.3821C42.9702 9.28835 43.9503 8.4858 45.598 8.4858C47.1676 8.4858 48.2045 9.21733 48.3395 10.4531ZM55.5607 21H58.2454L60.2908 13.6278H60.44L62.4854 21H65.163L68.2525 10.0909H65.6246L63.7354 17.7188H63.6289L61.6687 10.0909H59.0763L57.1161 17.7614H57.0167L55.0991 10.0909H52.4783L55.5607 21ZM70.0476 21H72.6186V10.0909H70.0476V21ZM71.3402 8.54261C72.157 8.54261 72.8246 7.91761 72.8246 7.15057C72.8246 6.37642 72.157 5.75142 71.3402 5.75142C70.5163 5.75142 69.8487 6.37642 69.8487 7.15057C69.8487 7.91761 70.5163 8.54261 71.3402 8.54261ZM80.788 10.0909H78.5224V9.23153C78.5224 8.37926 78.8775 7.90341 79.8363 7.90341C80.2411 7.90341 80.582 7.99574 80.7951 8.05966L81.3136 6.07102C80.9798 5.95739 80.2482 5.77273 79.3604 5.77273C77.4641 5.77273 75.9513 6.85938 75.9513 9.06108V10.0909H74.3391V12.0795H75.9513V21H78.5224V12.0795H80.788V10.0909ZM88.2489 10.0909H86.0969V7.47727H83.5259V10.0909H81.9776V12.0795H83.5259V18.1449C83.5117 20.1974 85.0032 21.206 86.935 21.1491C87.6665 21.1278 88.1708 20.9858 88.4478 20.8935L88.0146 18.8835C87.8725 18.919 87.5813 18.983 87.2617 18.983C86.6154 18.983 86.0969 18.7557 86.0969 17.7188V12.0795H88.2489V10.0909Z" fill="white"/>
<path d="M14.5 0C11.6322 0 8.82875 0.85041 6.44424 2.44369C4.05972 4.03697 2.20122 6.30156 1.10375 8.95109C0.00628262 11.6006 -0.280866 14.5161 0.27862 17.3288C0.838105 20.1415 2.2191 22.7252 4.24696 24.753C6.27482 26.7809 8.85847 28.1619 11.6712 28.7214C14.4839 29.2809 17.3994 28.9937 20.0489 27.8962C22.6984 26.7988 24.963 24.9403 26.5563 22.5558C28.1496 20.1712 29 17.3678 29 14.5C29 12.5958 28.6249 10.7103 27.8963 8.95109C27.1676 7.19187 26.0995 5.5934 24.753 4.24695C23.4066 2.9005 21.8081 1.83244 20.0489 1.10375C18.2897 0.375054 16.4042 0 14.5 0ZM14.5 2.9C15.3737 2.90571 16.2442 3.00782 17.0955 3.2045C16.8435 3.77347 16.455 4.2715 15.9645 4.6545C15.6455 4.901 15.2975 5.104 14.9495 5.3215C13.8478 5.86391 12.919 6.7024 12.267 7.743C11.5528 9.23152 11.2427 10.8818 11.368 12.528C11.368 14.5 11.368 15.66 9.9905 16.6895C8.00401 18.241 4.97351 17.371 3.08851 16.588C2.96527 15.8988 2.9022 15.2001 2.90001 14.5C2.90001 11.4235 4.12214 8.47298 6.29757 6.29756C8.47299 4.12214 11.4235 2.9 14.5 2.9ZM21.5905 23.664C21.3397 23.085 21.0338 22.5314 20.677 22.011C20.5175 21.779 20.358 21.547 20.213 21.3005C19.6475 20.3145 19.8505 19.8505 20.764 18.4005L20.909 18.154C21.4974 17.0751 21.7877 15.8589 21.75 14.6305C21.7485 14.1442 21.7922 13.6588 21.8805 13.1805C22.1125 12.122 24.36 11.832 25.752 11.7305C26.3146 13.9178 26.2214 16.2224 25.484 18.3571C24.7467 20.4919 23.3977 22.3627 21.605 23.7365L21.5905 23.664Z" fill="white"/>
</svg>
